<mxfile host="app.diagrams.net" modified="2024-03-12T13:39:11.671Z" agent="Mozilla/5.0 (Windows NT 10.0; Win64; x64) AppleWebKit/537.36 (KHTML, like Gecko) Chrome/122.0.0.0 Safari/537.36 Edg/122.0.0.0" etag="DUej9c7O4BOeQoMY3xPo" version="24.0.5" type="device">
  <diagram name="PÃ¡gina-1" id="9i4SujW1zdWzqYe7MbDM">
    <mxGraphModel dx="1386" dy="1954" grid="1" gridSize="10" guides="1" tooltips="1" connect="1" arrows="1" fold="1" page="1" pageScale="1" pageWidth="827" pageHeight="1169" math="0" shadow="0">
      <root>
        <mxCell id="0" />
        <mxCell id="1" parent="0" />
        <mxCell id="9K9_t-0EcEAde76KaR65-9" style="edgeStyle=orthogonalEdgeStyle;rounded=0;orthogonalLoop=1;jettySize=auto;html=1;exitX=0.5;exitY=1;exitDx=0;exitDy=0;" edge="1" parent="1" source="9K9_t-0EcEAde76KaR65-1">
          <mxGeometry relative="1" as="geometry">
            <mxPoint x="415" y="510" as="targetPoint" />
          </mxGeometry>
        </mxCell>
        <mxCell id="9K9_t-0EcEAde76KaR65-1" value="" style="rounded=0;whiteSpace=wrap;html=1;" vertex="1" parent="1">
          <mxGeometry x="50" y="-220" width="730" height="740" as="geometry" />
        </mxCell>
        <mxCell id="9K9_t-0EcEAde76KaR65-2" value="" style="rounded=0;whiteSpace=wrap;html=1;" vertex="1" parent="1">
          <mxGeometry x="50" y="-220" width="730" height="190" as="geometry" />
        </mxCell>
        <mxCell id="9K9_t-0EcEAde76KaR65-3" value="" style="rounded=0;whiteSpace=wrap;html=1;" vertex="1" parent="1">
          <mxGeometry x="60" y="-30" width="720" height="70" as="geometry" />
        </mxCell>
        <mxCell id="9K9_t-0EcEAde76KaR65-4" value="Foto" style="ellipse;whiteSpace=wrap;html=1;aspect=fixed;" vertex="1" parent="1">
          <mxGeometry x="140" y="-180" width="100" height="100" as="geometry" />
        </mxCell>
        <mxCell id="9K9_t-0EcEAde76KaR65-5" value="Nome" style="rounded=0;whiteSpace=wrap;html=1;" vertex="1" parent="1">
          <mxGeometry x="460" y="-160" width="120" height="60" as="geometry" />
        </mxCell>
        <mxCell id="9K9_t-0EcEAde76KaR65-6" value="Instagram" style="rounded=0;whiteSpace=wrap;html=1;" vertex="1" parent="1">
          <mxGeometry x="50" y="-30" width="370" height="70" as="geometry" />
        </mxCell>
        <mxCell id="9K9_t-0EcEAde76KaR65-7" value="Github" style="rounded=0;whiteSpace=wrap;html=1;" vertex="1" parent="1">
          <mxGeometry x="420" y="-30" width="360" height="70" as="geometry" />
        </mxCell>
        <mxCell id="9K9_t-0EcEAde76KaR65-8" value="" style="rounded=0;whiteSpace=wrap;html=1;" vertex="1" parent="1">
          <mxGeometry x="50" y="410" width="730" height="110" as="geometry" />
        </mxCell>
      </root>
    </mxGraphModel>
  </diagram>
</mxfile>
